<?xml version="1.0" encoding="utf-8"?>
<!-- Generator: Adobe Illustrator 19.1.0, SVG Export Plug-In . SVG Version: 6.00 Build 0)  -->
<svg version="1.1" id="Layer_1" xmlns="http://www.w3.org/2000/svg" xmlns:xlink="http://www.w3.org/1999/xlink" x="0px" y="0px"
	 viewBox="0 0 390.7 121.9" style="enable-background:new 0 0 390.7 121.9;" xml:space="preserve">
<style type="text/css">
	.st0{fill:#F78D21;}
	.st1{fill:#FFFFFF;}
</style>
<g>
	<path class="st0" d="M390.7,0H38C26.7,0,16.4,6.9,11.4,16.7c-1.7,3.2-2.8,6.8-3.1,10.6L0,121.8c0,0,0,0,0,0l0,0.1h352.5l0,0
		c0.1,0,0.1,0,0.2,0c11.3,0,21.5-6.9,26.5-16.6c1.6-3,2.5-6.2,2.9-9.7h0l8.5-95.4c0,0,0,0-0.1,0L390.7,0z"/>
	<g>
		<path class="st1" d="M57.7,41.5c0.1-1.3-0.2-2.5-0.8-3.6c-1-1.7-2.8-2.8-5-2.8c-2.6,0-5,1.6-6.2,3.9c-0.4,0.8-0.6,1.6-0.7,2.5
			l-0.7,7.8c0,0,2.6,0.1,3.8,0.1C57.7,49.3,57.7,41.5,57.7,41.5z"/>
		<path class="st1" d="M71.6,54.4c-0.8-0.4-1.6-0.6-2.6-0.6H31.5c-1.3,0-2.6,0.4-3.6,1.1c-1.8,1.1-3.1,3.1-3.3,5.3
			c-0.2,2.6,1.2,4.9,3.4,5.9c0.7,0.3,1.5,0.5,2.4,0.5h12.4l-1.1,12.3c-0.1,0.9,0,1.7,0.3,2.5c0.8,2.3,2.9,3.9,5.5,3.9
			c2.6,0,4.9-1.5,6.1-3.7c0.4-0.8,0.7-1.7,0.8-2.6l1.1-12.3h12.4c0.9,0,1.7-0.2,2.5-0.5c2.4-1,4.2-3.2,4.4-5.9
			C75,57.6,73.7,55.4,71.6,54.4"/>
		<path class="st1" d="M118,83.7c-2.6,1.6-5.8,2.4-9.7,2.4H93.1l1.6-18.8h15.7c4.2,0,7.4,0.3,9.2,1.9c2,1.8,2.7,3.9,2.5,6.8
			C121.8,79.7,120.4,82.2,118,83.7 M97.5,36h11.9c3.1,0,5.6,0.8,7.5,2.4c1.8,1.5,2.6,3.7,2.3,6.6c-0.3,3.4-1.5,5.9-3.4,7.4
			c-2.1,1.6-4.5,2.3-7.4,2.3H95.9L97.5,36z M124.3,58.8c5.2-3.1,8.1-8.2,8.8-15.3c0.5-6.2-1.3-11.1-5.5-14.4
			c-4.1-3.2-9.2-4.9-15.2-4.9H92.6h0h0c0,0-0.1,0-0.1,0c-1.4,0-2.6,0.4-3.8,1.1c-0.7,0.4-1.3,1-1.8,1.6c-1,1.2-1.6,2.5-1.7,4
			l-5.3,60.1c-0.1,1.6,0.3,3.1,1.2,4.3c0.4,0.5,0.8,1,1.3,1.3c1,0.7,2.2,1.1,3.6,1.1c0,0,0.1,0,0.1,0h0h0h23.4
			c6.7,0,12.6-1.7,17.6-5.1c5.2-3.5,8.1-8.6,8.6-15.2c0.4-5-0.5-9.2-2.8-12.6C131.1,62.2,128.2,60.1,124.3,58.8"/>
		<path class="st1" d="M168.1,85.7c-2.8,1.5-5.7,2.2-8.5,2.2c-2.4,0-4.4-0.5-6-1.5c-1.4-0.9-2-2.2-1.9-4c0.4-4.8,9.3-6.5,17.2-7
			L168.1,85.7z M164.9,46.8c-4.7,0-9.4,0.9-13.9,2.7c-4.2,1.7-6.5,3.8-6.7,6.4c-0.1,1.4,0.2,2.6,1.1,3.5c0.8,0.9,2,1.4,3.4,1.4
			c0.6,0,1.9-0.2,5.6-1.7c3-1.2,5.8-1.9,8.5-1.9c2.8,0,4.7,0.8,5.9,2.3c1,1.4,1.4,3.5,1.2,6.3l0,0.3c-8.9,0.8-15.3,2-19.5,3.6
			c-6.7,2.6-10.4,7-10.9,13.1c-0.4,4.7,1,8.5,4.2,11.2c3.1,2.7,7.1,4,11.8,4c4.9,0,9.2-0.9,12.9-2.5c1,1.7,2.7,2.5,5,2.5
			c1.7,0,3.3-0.6,4.6-1.8c1.3-1.2,2.1-2.7,2.3-4.4l2.3-25.9c0.5-5.7-0.5-10.1-3-13.3C176.5,48.7,171.5,46.8,164.9,46.8"/>
		<path class="st1" d="M217.5,81.8c-3.1,3.4-7.2,5.1-12.8,5.1c-2.3,0-4.2-0.1-5.6-0.2l2.4-27c2.7-1.2,5.5-1.8,8.4-1.8
			c3.6,0,6.5,1.2,8.7,3.7c2.2,2.7,3.2,6.3,2.8,10.7C220.9,76.2,219.6,79.4,217.5,81.8 M212.9,46.8c-3.6,0-7.1,0.6-10.5,1.8l1.6-17.9
			c0.1-1-0.1-1.8-0.4-2.6c-0.8-2.2-2.9-3.7-5.4-3.7c-2.2,0-4.2,1.1-5.5,2.8c-0.8,1-1.3,2.2-1.4,3.5l-5.2,59.2
			c-0.3,3.9,1.4,6.4,5.1,7.2c2.9,0.6,6.8,0.8,11.6,0.8c10.3,0,18.4-2.9,24.1-8.7c4.2-4.3,6.7-10,7.3-16.8c0.7-7.7-0.9-13.9-4.7-18.5
			C225.5,49.1,219.9,46.8,212.9,46.8"/>
		<path class="st1" d="M269.3,81.8c-3.1,3.4-7.3,5.1-12.8,5.1c-2.3,0-4.2-0.1-5.6-0.2l2.4-27c2.7-1.2,5.5-1.8,8.4-1.8
			c3.7,0,6.5,1.2,8.7,3.7c2.3,2.7,3.2,6.3,2.8,10.7C272.7,76.2,271.5,79.4,269.3,81.8 M264.7,46.8c-3.6,0-7.1,0.6-10.5,1.8l1.6-17.9
			c0.1-0.9,0-1.8-0.3-2.6c-0.8-2.2-2.9-3.7-5.4-3.7c-2.2,0-4.2,1.1-5.5,2.8c-0.8,1-1.3,2.2-1.4,3.5l-5.2,59.2
			c-0.3,3.9,1.4,6.4,5.1,7.2c2.9,0.6,6.8,0.8,11.6,0.8c10.3,0,18.4-2.9,24-8.7c4.3-4.3,6.7-10,7.3-16.8c0.7-7.7-0.9-13.9-4.8-18.5
			C277.3,49.1,271.7,46.8,264.7,46.8"/>
		<path class="st1" d="M303.4,66.9c0.6-2.4,1.6-4.5,3.2-6.1c2.3-2.3,5.2-3.4,9.1-3.4c3.4,0,6,1,7.8,3.2c1.4,1.8,2.1,3.8,2.1,6.4
			H303.4z M316.6,46.8c-7.5,0-13.8,2.4-18.6,7c-4.9,4.7-7.7,10.7-8.4,17.9c-0.7,7.6,1.1,13.9,5.2,18.6c4.2,5,10.5,7.6,18.7,7.6
			c5.3,0,10.3-1,14.8-2.9c3.8-1.6,5.8-3.7,6-6.2c0.1-1.4-0.2-2.7-1.1-3.8c-1.1-1.4-2.7-2-4.9-1.5c-0.5,0.1-1,0.3-1.4,0.5
			c-0.3,0.2-0.7,0.4-1.2,0.6c-0.6,0.3-1.1,0.5-1.5,0.7c-3,1.3-6.1,2-9.1,2c-4.5,0-7.7-1.4-10-4.3c-1.4-1.8-2.3-4.1-2.5-6.8h28.3
			c2,0,3.6-0.7,4.9-2c1.2-1.3,2-3,2.1-4.9c0.6-6.3-1-11.6-4.6-15.8C329.3,49,323.7,46.8,316.6,46.8"/>
		<path class="st1" d="M359.5,30.6c0.1-1.3-0.2-2.5-0.8-3.5c-1-1.7-2.8-2.8-5-2.8c-2.6,0-5,1.6-6.2,3.9c-0.4,0.8-0.6,1.6-0.7,2.5
			l-5.3,61c-0.1,0.9,0,1.7,0.3,2.5c0.8,2.3,2.9,3.9,5.5,3.9c2.6,0,4.9-1.5,6.1-3.7c0.4-0.8,0.7-1.7,0.8-2.6L359.5,30.6z"/>
	</g>
</g>
</svg>
