<?xml version="1.0" encoding="utf-8"?>
<!-- Generator: Adobe Illustrator 19.1.0, SVG Export Plug-In . SVG Version: 6.00 Build 0)  -->
<svg version="1.1" id="Layer_1" xmlns="http://www.w3.org/2000/svg" xmlns:xlink="http://www.w3.org/1999/xlink" x="0px" y="0px"
	 viewBox="0 0 395.5 121" style="enable-background:new 0 0 395.5 121;" xml:space="preserve">
<style type="text/css">
	.st0{fill:#FFFFFF;}
	.st1{fill:#F4BD19;}
	.st2{fill:#3CBEB1;}
	.st3{fill:#E9478C;}
	.st4{fill:#2C458F;}
	.st5{fill:#95C63D;}
	.st6{fill:#176655;}
</style>
<g>
	<g>
		<g>
			<path class="st0" d="M121.5,63.4c0-10.2-6.3-19.1-15.8-22.5c0.4-2.1,0.6-4.3,0.6-6.5C106.3,15.4,90.9,0,72,0
				C60.9,0,50.6,5.3,44.2,14.2c-3.2-2.5-7.1-3.8-11.2-3.8c-10,0-18.2,8.2-18.2,18.2c0,2.2,0.4,4.3,1.1,6.4C6.5,38.4,0,47.5,0,57.6
				c0,10.2,6.3,19.2,15.9,22.6c-0.4,2.1-0.6,4.3-0.6,6.5c0,18.9,15.4,34.2,34.2,34.2c11.1,0,21.4-5.3,27.8-14.3
				c3.2,2.5,7.1,3.9,11.2,3.9c10,0,18.2-8.2,18.2-18.2c0-2.2-0.4-4.3-1.1-6.4C115,82.6,121.5,73.5,121.5,63.4z"/>
			<g>
				<path class="st1" d="M47.5,52l27.1,12.4l27.4-24c0.4-2,0.6-4,0.6-6c0-16.9-13.7-30.6-30.6-30.6c-10.1,0-19.5,5-25.2,13.3
					l-4.6,23.6L47.5,52z"/>
			</g>
			<g>
				<path class="st2" d="M19.4,80.7c-0.4,2-0.6,4-0.6,6.1c0,16.9,13.8,30.7,30.7,30.7c10.2,0,19.6-5,25.3-13.4l4.5-23.5l-6-11.5
					L46.1,56.6L19.4,80.7z"/>
			</g>
			<g>
				<path class="st3" d="M19.3,33.7l18.6,4.4L41.9,17c-2.5-1.9-5.7-3-8.9-3c-8.1,0-14.6,6.6-14.6,14.6
					C18.4,30.4,18.7,32.1,19.3,33.7z"/>
			</g>
			<g>
				<path class="st4" d="M17.7,38.2C9.3,40.9,3.6,48.9,3.6,57.6c0,8.5,5.3,16.1,13.2,19.1l26.1-23.6L38,43L17.7,38.2z"/>
			</g>
			<g>
				<path class="st5" d="M79.6,104c2.5,2,5.7,3,8.9,3c8.1,0,14.6-6.6,14.6-14.6c0-1.8-0.3-3.5-0.9-5.1L83.7,83L79.6,104z"/>
			</g>
			<g>
				<path class="st6" d="M83.4,78.1l20.4,4.8c8.3-2.7,14.1-10.7,14.1-19.5c0-8.5-5.3-16.1-13.2-19.1L78,67.7L83.4,78.1z"/>
			</g>
		</g>
		<path d="M161.5,71.9c0,0.1,0,0.6,0.1,1.4c0.1,0.8,0.3,1.8,0.6,2.9c0.3,1.1,0.8,2.4,1.4,3.6c0.6,1.3,1.4,2.5,2.4,3.5
			c1,1.1,2.3,2,3.8,2.7c1.5,0.7,3.3,1.1,5.5,1.1c1.8,0,3.3-0.1,4.5-0.4c1.3-0.3,2.4-0.7,3.3-1.3c1-0.6,1.9-1.3,2.6-2.2
			c0.8-0.9,1.6-1.9,2.4-3.1c0.5-0.7,1-1.2,1.5-1.5c0.6-0.3,1.2-0.4,1.8-0.4c1,0,2,0.4,2.8,1.1c0.9,0.7,1.3,1.7,1.3,2.8
			c0,0.7-0.4,1.7-1.1,3.1c-0.7,1.4-1.9,2.7-3.5,4.1c-1.6,1.4-3.7,2.6-6.3,3.6c-2.6,1-5.7,1.5-9.4,1.5c-3.8,0-7.1-0.7-10.1-2.1
			c-3-1.4-5.5-3.2-7.5-5.5c-2-2.3-3.6-5-4.6-8.1c-1.1-3.1-1.6-6.3-1.6-9.7c0-3.5,0.5-6.8,1.6-9.9c1.1-3.1,2.6-5.8,4.7-8.1
			c2-2.3,4.5-4.1,7.3-5.4c2.8-1.3,6-2,9.6-2c3.2,0,6.3,0.5,9.1,1.5c2.8,1,5.3,2.4,7.4,4.2c2.1,1.9,3.7,4.1,4.9,6.8
			c1.2,2.7,1.8,5.7,1.8,9.1c0,2.1-0.5,3.7-1.5,4.8c-1,1.1-2.2,1.6-3.6,1.6H161.5z M169.6,52.1c-1.5,0.6-2.7,1.4-3.7,2.4
			c-1,0.9-1.8,2-2.4,3.1c-0.6,1.1-1,2.2-1.3,3.2c-0.3,1-0.5,1.8-0.5,2.5c-0.1,0.7-0.1,1.1-0.1,1.2h27.7c0-1.8-0.3-3.4-0.9-5
			c-0.6-1.6-1.4-3-2.6-4.2c-1.2-1.2-2.7-2.2-4.5-2.9c-1.8-0.7-4-1.1-6.4-1.1C172.8,51.2,171.1,51.5,169.6,52.1z"/>
		<path d="M212.6,90c0,1.3-0.4,2.3-1.3,3.2c-0.9,0.9-1.9,1.3-3.2,1.3c-1.3,0-2.3-0.4-3.2-1.3c-0.9-0.9-1.3-1.9-1.3-3.2V30.9
			c0-1.3,0.4-2.3,1.3-3.2c0.9-0.9,2-1.3,3.2-1.3c1.3,0,2.3,0.4,3.2,1.3c0.9,0.9,1.3,1.9,1.3,3.2V90z"/>
		<path d="M228,59.1c-0.6,0.3-1.2,0.5-1.8,0.5c-1.1,0-2.2-0.4-3.2-1.1c-1-0.7-1.5-1.8-1.5-3.1c0-0.5,0.1-1.1,0.4-1.9
			c0.5-1.2,1.2-2.4,2.1-3.5c0.9-1.2,2-2.2,3.5-3.1s3.2-1.6,5.4-2.2c2.1-0.5,4.7-0.8,7.8-0.8c5.8,0,10.4,1.2,13.9,3.5
			c3.4,2.3,5.2,5.7,5.2,10.2V90c0,1.3-0.4,2.3-1.3,3.2c-0.9,0.9-1.9,1.3-3.2,1.3c-1.3,0-2.3-0.4-3.2-1.3c-0.9-0.9-1.3-1.9-1.3-3.2
			v-2c-1.2,2-4.6,4.5-7.4,5.3c-2.8,0.8-5.7,1.2-8.8,1.2c-1.9,0-3.9-0.3-5.9-0.8c-2-0.5-3.7-1.4-5.3-2.5c-1.6-1.1-2.8-2.6-3.8-4.3
			c-1-1.7-1.5-3.8-1.5-6.2c0-2.7,0.5-5.6,1.6-7.5c1.1-1.8,2.5-3.4,4.4-4.6c1.8-1.2,3.9-2.1,6.3-2.7c2.4-0.6,4.9-1.1,7.5-1.4
			c3-0.3,5.4-0.7,7.1-1.2s3-0.9,3.8-1.5c0.9-0.6,1.4-1.2,1.6-2c0.2-0.7,0.3-1.6,0.3-2.5c0-1.1-0.3-2-0.9-2.8c-0.6-0.8-1.4-1.5-2.4-2
			c-1-0.5-2.1-0.9-3.2-1.2s-2.4-0.4-3.5-0.4c-2.1,0-3.7,0.2-5,0.5c-1.3,0.3-2.3,0.8-3.1,1.4c-0.8,0.6-1.4,1.3-1.9,2.1
			c-0.5,0.8-0.9,1.6-1.3,2.5C229.1,58.3,228.6,58.8,228,59.1z M248.6,70c-1.1,0.3-2.4,0.6-3.8,0.8c-1.5,0.2-3,0.4-4.5,0.6
			c-1.6,0.2-3.1,0.5-4.6,0.9c-1.5,0.3-2.8,0.8-4,1.5c-1.2,0.7-2.2,1.5-2.9,2.5c-0.7,1-1.1,2.9-1.1,4.5c0,1.3,0.3,2.3,0.8,3.1
			c0.5,0.8,1.2,1.5,2.1,2c0.9,0.5,1.8,0.8,2.9,1c1.1,0.2,2.2,0.3,3.2,0.3c1.7,0,3.3-0.2,5-0.6c1.7-0.4,3.1-1,4.5-1.8s2.4-2,3.2-3.4
			c0.8-1.4,1.2-3.8,1.2-5.9v-6.1L248.6,70z"/>
		<path d="M305.2,86.3c-1.1,2-2.6,3.6-4.5,4.8s-4.1,2.1-6.6,2.6c-2.5,0.5-5.1,0.8-7.9,0.8c-3.9,0-7.1-0.6-9.8-1.8
			c-2.6-1.2-4.8-2.5-6.5-4.1c-1.7-1.6-2.9-3.1-3.6-4.7c-0.7-1.5-1.1-2.7-1.1-3.5c0-1.3,0.5-2.4,1.4-3.2c0.9-0.8,2-1.2,3-1.2
			c0.7,0,1.3,0.2,2,0.6c0.6,0.4,1.1,1,1.5,1.9c1,2.5,2.5,4.5,4.7,6.2c2.1,1.7,5.2,2.5,9.2,2.5c1.8,0,3.4-0.2,4.7-0.6
			c1.3-0.4,2.4-1,3.2-1.7c0.8-0.7,1.4-1.5,1.8-2.4c0.4-0.9,0.6-1.8,0.6-2.8c0-1.9-0.8-3.4-2.3-4.4c-1.5-1-3.4-1.7-5.7-2.3
			c-2.3-0.6-4.8-1.1-7.5-1.6c-2.7-0.5-5.2-1.2-7.5-2.1c-2.3-0.9-4.2-2.3-5.7-4c-1.5-1.7-2.3-4.1-2.3-7.2c0-4.4,1.6-7.9,4.9-10.4
			c3.2-2.5,7.8-3.8,13.6-3.8c3.2,0,6,0.3,8.2,1c2.2,0.7,4,1.6,5.5,2.7c0.6,0.5,1.2,1,1.8,1.7c0.6,0.7,1.2,1.4,1.8,2.1
			c0.6,0.8,1,1.5,1.4,2.3c0.4,0.7,0.6,1.4,0.6,2c0,1.3-0.5,2.4-1.5,3.1c-1,0.8-2.1,1.2-3.3,1.2c-0.7,0-1.5-0.1-2.1-0.6
			c-0.6-0.6-1-1.3-1.3-1.8c-0.5-1.1-1.1-2-1.6-2.8c-0.5-0.8-1.2-1.5-2-2c-0.8-0.5-1.8-0.9-3-1.2s-2.6-0.4-4.4-0.4
			c-3.5,0-6,0.6-7.6,1.7c-1.6,1.1-2.4,2.5-2.4,4.1c0,1.3,0.5,2.3,1.4,3c0.9,0.8,2.1,1.4,3.6,2c1.5,0.5,3.2,1,5.2,1.4
			c1.9,0.4,3.9,0.8,5.9,1.3c2,0.5,4,1.1,5.9,1.7c1.9,0.7,3.7,1.5,5.2,2.6c1.5,1.1,2.7,2.5,3.6,4.1c0.9,1.6,1.4,3.6,1.4,6
			C306.9,81.9,306.3,84.3,305.2,86.3z"/>
		<path d="M324.8,44.5h4.7c1.1,0,2,0.4,2.8,1.2c0.8,0.8,1.2,1.7,1.2,2.8c0,1.1-0.4,2.1-1.2,2.8c-0.8,0.7-1.7,1.1-2.8,1.1h-4.7V90
			c0,1.3-0.4,2.3-1.3,3.2c-0.9,0.9-2,1.3-3.2,1.3c-1.3,0-2.3-0.4-3.2-1.3c-0.9-0.9-1.3-1.9-1.3-3.2V52.4h-4.6c-1.1,0-2-0.4-2.8-1.1
			c-0.8-0.7-1.2-1.7-1.2-2.8c0-1.1,0.4-2,1.2-2.8c0.8-0.8,1.7-1.2,2.8-1.2h4.6v-9.6c0-1.3,0.4-2.3,1.3-3.2c0.9-0.9,1.9-1.3,3.2-1.3
			c1.3,0,2.3,0.4,3.2,1.3c0.9,0.9,1.3,1.9,1.3,3.2V44.5z"/>
		<path d="M338.8,28c1-1,2.2-1.5,3.6-1.5c1.4,0,2.5,0.5,3.5,1.5c1,1,1.5,2.2,1.5,3.6c0,1.4-0.5,2.6-1.5,3.5c-1,1-2.2,1.5-3.5,1.5
			c-1.4,0-2.6-0.5-3.6-1.5c-1-1-1.5-2.2-1.5-3.5C337.3,30.1,337.8,28.9,338.8,28z M346.9,90c0,1.3-0.4,2.3-1.3,3.2
			c-0.9,0.9-1.9,1.3-3.2,1.3c-1.3,0-2.3-0.4-3.2-1.3c-0.9-0.9-1.3-1.9-1.3-3.2V49c0-1.3,0.4-2.3,1.3-3.2c0.9-0.9,1.9-1.3,3.2-1.3
			c1.3,0,2.3,0.4,3.2,1.3c0.9,0.9,1.3,2,1.3,3.2V90z"/>
		<path d="M366.1,92.7c-2.9-1.2-5.4-2.9-7.5-5.2c-2.1-2.2-3.8-4.9-5-8c-1.2-3.1-1.8-6.5-1.8-10.3c0-3.8,0.6-7.3,1.8-10.4
			c1.2-3.1,2.8-5.8,5-8c2.1-2.2,4.6-3.9,7.5-5.2c2.9-1.2,6-1.8,9.4-1.8c3.4,0,6.4,0.5,8.9,1.5c2.5,1,4.6,2.2,6.2,3.5
			c1.6,1.4,3.1,2.9,3.9,4.4c0.5,0.9,0.9,1.5,0.9,2.6c0,1.3-0.5,2.3-1.4,3c-0.9,0.7-1.9,1.1-3.1,1.1c-0.8,0-1.5-0.2-2.2-0.6
			c-0.7-0.4-1.2-1.3-1.8-2.1c-1-1.4-0.4-0.6-1.1-1.5c-0.7-0.9-1.5-1.6-2.5-2.3c-1-0.7-2.2-1.2-3.5-1.6c-1.3-0.4-2.8-0.6-4.4-0.6
			c-1.8,0-3.5,0.3-5.3,1c-1.7,0.7-3.3,1.7-4.7,3.1c-1.4,1.4-2.5,3.3-3.4,5.6s-1.3,5.1-1.3,8.3c0,3.2,0.4,6,1.3,8.3s2,4.1,3.4,5.6
			c1.4,1.4,3,2.5,4.7,3.1c1.7,0.7,3.5,1,5.3,1c1.6,0,3.1-0.2,4.4-0.6c1.3-0.4,2.5-0.9,3.5-1.6c1-0.7,1.8-1.5,2.5-2.3
			c0.7-0.9,1.1-1.7,1.4-2.6c0.3-1,0.8-1.7,1.5-2.1c0.7-0.4,1.4-0.6,2.2-0.6c1.1,0,2.2,0.4,3.1,1.1c0.9,0.7,1.4,1.7,1.4,2.9
			c0,0.6-0.3,1.7-0.9,3.1c-0.6,1.5-1.6,2.9-3.1,4.4c-1.5,1.5-3.5,2.8-6.1,3.9c-2.6,1.1-5.9,1.7-10,1.7
			C372.1,94.5,369,93.9,366.1,92.7z"/>
	</g>
</g>
</svg>
