<?xml version="1.0" encoding="utf-8"?>
<!-- Generator: Adobe Illustrator 19.1.0, SVG Export Plug-In . SVG Version: 6.00 Build 0)  -->
<svg version="1.1" id="Layer_1" xmlns="http://www.w3.org/2000/svg" xmlns:xlink="http://www.w3.org/1999/xlink" x="0px" y="0px"
	 viewBox="0 0 300 65" style="enable-background:new 0 0 300 65;" xml:space="preserve">
<style type="text/css">
	.st0{fill:#E82429;}
</style>
<g>
	<g>
		<polygon class="st0" points="1.9,12.4 23.3,12.4 23.3,19.2 9.6,19.2 9.6,27.8 23,27.8 23,34.6 9.6,34.6 9.6,43.8 23.3,43.8 
			23.3,50.5 1.9,50.5 		"/>
		<g>
			<path class="st0" d="M28.1,22.3h6.3c0,1.2,0,2.4-0.1,3.8c1.2-2.2,3.8-4.7,8.8-4.6c9.2,0.1,11,7.1,11,12.1v17h-6.7V35.2
				c0-4.2-1.4-7.5-6.1-7.5c-4.8,0.1-6.4,3.2-6.4,7.2v15.6h-6.7V22.3z"/>
			<path class="st0" d="M88.6,47.2c0,4.6-0.9,7.6-2.6,10c-2.4,3.2-7.2,5.8-13,5.8c-8.8,0-13-5.3-14.1-9.6h7.8
				c0.6,1.3,1.7,2.3,2.9,2.9c1.4,0.8,2.9,1,3.7,1c4,0,8.4-2.8,8.4-8.5v-2.4c-1.4,2.5-4.4,5-9.2,5c-8.1,0-14.4-6.2-14.4-14.9
				c0-9.2,6.6-15.1,14.4-15.1c4.1,0,7.6,1.9,9.2,4.6v-3.8h6.8V47.2z M64.9,36.4c0,4.9,3.6,8.7,8.4,8.7c2.5,0,4.5-0.9,6-2.4
				c1.5-1.5,2.4-3.6,2.4-6c0-2.2-0.7-4.4-2.1-6.1c-1.3-1.7-3.4-2.8-6.4-2.8C68.8,27.7,64.9,31.3,64.9,36.4L64.9,36.4z"/>
			<rect x="94.1" y="22.3" class="st0" width="6.7" height="28.3"/>
			<path class="st0" d="M106.4,22.3h6.3c0,1.2,0,2.4-0.1,3.8c1.2-2.2,3.8-4.7,8.8-4.6c9.2,0.1,11,7.1,11,12.1v17h-6.7V35.2
				c0-4.2-1.4-7.5-6.1-7.5c-4.8,0.1-6.4,3.2-6.4,7.2v15.6h-6.7V22.3z"/>
			<path class="st0" d="M142,38.6c0.3,4.5,4.3,7.1,8.2,7c3.3,0,5.5-1.5,6.8-3.8h6.9c-1.3,3.1-3.3,5.5-5.7,7.1
				c-2.4,1.6-5.1,2.5-8.1,2.5c-8.7,0-14.9-7.1-14.9-14.9c0-8,6.3-15.1,14.8-15.1c4.2,0,7.9,1.6,10.6,4.3c3.4,3.6,4.7,8,4.2,12.9H142
				z M158.1,33.5c-0.3-2.7-3.1-6.4-8-6.4c-5,0-7.7,3.6-8,6.4H158.1z"/>
			<polygon class="st0" points="190.2,36.9 178.5,12.4 186.8,12.4 194,29.7 201.2,12.4 209.5,12.4 197.8,36.9 197.8,50.5 
				190.2,50.5 			"/>
			<path class="st0" d="M236.3,50.5h-6.7v-4.1c-1.8,3.3-5.6,4.9-9.5,4.9c-9.1,0-14.4-7.1-14.4-15c0-8.9,6.4-15,14.4-15
				c5.1,0,8.3,2.7,9.5,5v-4.1h6.7V50.5z M212.5,36.5c0,3.5,2.5,8.6,8.6,8.6c3.8,0,6.2-2,7.5-4.5c0.7-1.2,1-2.6,1.1-4
				c0.1-1.3-0.2-2.7-0.8-4c-1.2-2.7-3.8-5-7.9-5C215.5,27.7,212.5,32.1,212.5,36.5L212.5,36.5z"/>
			<path class="st0" d="M242,22.3h6.4V26c1.2-2.5,3.6-4.5,7.8-4.6v6.8h-0.3c-4.7,0-7.2,2.2-7.2,7.1v15.2H242V22.3z"/>
			<path class="st0" d="M286.8,50.5h-6.4v-4.1c-1.2,2.1-3.9,4.9-9.7,4.9c-8.7,0-14.3-6.8-14.3-15c0-9.2,6.5-15,14.2-15
				c5.4,0,8.4,2.9,9.5,4.5v-4.1v-9.4h6.7V50.5z M263.1,36.4c0,4.8,3.4,8.7,8.6,8.7c2.5,0,4.7-1,6.3-2.6c1.6-1.6,2.5-3.8,2.4-6.3
				c0-2.5-1-4.6-2.5-6.1c-1.5-1.5-3.7-2.5-6.1-2.5C266.3,27.7,263.1,31.9,263.1,36.4L263.1,36.4z"/>
			<path class="st0" d="M87.2,13.1h6.2l5.2,5.2V8.5c0-2.1-1.7-3.8-3.8-3.8c-0.9,0-1.7,0.3-2.4,0.8C91.5,3.5,89.5,2,87.2,2
				c-3.1,0-5.5,2.5-5.5,5.5C81.6,10.6,84.1,13.1,87.2,13.1"/>
			<path class="st0" d="M290.7,13.3h-1v-0.8h2.9v0.8h-1v3.5h-1V13.3z M293.2,12.4h1.3l1.2,3l1.2-3h1.3v4.4h-0.9v-3.2l-1.2,3.2h-0.7
				l-1.2-3.2v3.2h-0.9V12.4z"/>
		</g>
	</g>
</g>
</svg>
