<?xml version="1.0" encoding="utf-8"?>
<!-- Generator: Adobe Illustrator 19.1.0, SVG Export Plug-In . SVG Version: 6.00 Build 0)  -->
<svg version="1.1" id="Layer_1" xmlns="http://www.w3.org/2000/svg" xmlns:xlink="http://www.w3.org/1999/xlink" x="0px" y="0px"
	 viewBox="0 0 610 210" style="enable-background:new 0 0 610 210;" xml:space="preserve">
<style type="text/css">
	.st0{fill:#BFE7F7;}
	.st1{fill:#58544E;}
</style>
<g>
	<g>
		<g>
			<g>
				<path class="st0" d="M104.8,29.2c41.9,0,75.8,33.9,75.8,75.8c0,41.9-33.9,75.8-75.8,75.8S29,146.9,29,105
					C29,63.1,63,29.2,104.8,29.2 M104.8,5C78.1,5,53,15.4,34.1,34.3C15.2,53.2,4.8,78.3,4.8,105s10.4,51.8,29.3,70.7
					s44,29.3,70.7,29.3s51.8-10.4,70.7-29.3s29.3-44,29.3-70.7c0-26.7-10.4-51.8-29.3-70.7C156.7,15.4,131.5,5,104.8,5L104.8,5z"/>
				<g>
					<g>
						<polygon class="st1" points="139.3,79 139.3,54.6 91.2,54.6 66.7,79.3 66.7,103.7 91.1,103.7 91.1,79 						"/>
						<polygon class="st1" points="66.7,152.4 91.2,152.4 91.2,128 139.3,128 139.3,103.7 91.2,103.7 66.7,128 						"/>
					</g>
				</g>
			</g>
		</g>
	</g>
	<g>
		<path class="st1" d="M296.1,142.4V56.5h52.2v11H308v27.6h36.6v11.1H308v36.1H296.1z"/>
		<path class="st1" d="M364.8,166.7l14.5-30.8l-25.1-51.8h13.1l18.2,40.2L403,84.1h12.2l-37.9,82.6H364.8z"/>
		<path class="st1" d="M426.1,142.4V54.7h11.3v37.7c2.8-5.2,9.6-9.9,19.3-9.9c17.7,0,26.8,13.6,26.8,30.5c0,17.3-9.8,31-27.1,31
			c-8.6,0-15.3-3.8-18.9-10.1v8.5H426.1z M454.5,92.5c-10,0-17.3,7.9-17.3,20.5c0,12.6,7.3,20.8,17.3,20.8
			c10.4,0,17.2-8.2,17.2-20.8C471.7,100.4,465.1,92.5,454.5,92.5z"/>
		<path class="st1" d="M551,125.8c-3.3,10.3-12.6,18.4-26.2,18.4c-15.6,0-29.3-11.4-29.3-31.1c0-18.3,13.2-30.8,27.9-30.8
			c17.9,0,28,12.4,28,30.5c0,1.5-0.1,2.9-0.3,3.6h-43.8c0.3,10.4,7.8,17.7,17.6,17.7c9.4,0,14.2-5.2,16.4-11.7L551,125.8z
			 M539.5,107.3c-0.2-8.4-5.7-14.9-16-14.9c-9.6,0-15.4,7.4-15.9,14.9H539.5z"/>
		<path class="st1" d="M598.2,95.6c-1.7-0.2-3.4-0.4-5-0.4c-9.6,0-16,5.1-16,17.9v29.2h-11.4V84.1H577v10.2
			c4.2-9,11.5-11.1,17.4-11.1c1.6,0,3.2,0.2,3.8,0.4V95.6z"/>
	</g>
</g>
</svg>
