<svg xmlns="http://www.w3.org/2000/svg" xmlns:xlink="http://www.w3.org/1999/xlink" version="1.1" x="0px" y="0px" viewBox="9.8 619.8 607.9 175.5" enable-background="new 9.8 619.8 607.9 175.5" xml:space="preserve"><g id="Isolation_Mode"><g><g><path d="M217.4,713.2c-5.2-2.9-8.1-5.2-8.1-8.7c0-4,4-7,9.9-7c5.2,0,9.9,1.7,12.7,2.9l4.6-14.5c-3.5-1.7-9.2-3.5-17.4-3.5     c-18.5,0-30.7,10.4-30.7,24.8c0,8.1,5.8,14.5,13.9,19.1c6.4,3.5,8.7,6.4,8.7,9.9c0,4-2.9,7-9.2,7s-13.3-2.4-16.7-4.6l-5.2,14.5     c4,2.9,12.1,5.2,20.2,5.2c18.5,0,31.8-9.2,31.8-25.5C232.4,724.2,225.5,717.8,217.4,713.2z M292.1,682.5c-9.2,0-16.2,4-22,11     h-0.6l8.1-41.7h-20.8l-20.2,105.4h20.8l7-35.8c2.9-13.3,9.9-22,16.2-22c4.6,0,6.4,2.9,6.4,7.5c0,2.9-0.6,6.4-1.1,9.2l-8.1,41.1     h20.8l8.1-42.8c1.1-4.6,1.7-9.9,1.7-13.3C308.8,689.5,303.1,682.5,292.1,682.5z M356.3,682.5c-24.8,0-41.7,22.6-41.7,47.4     c0,16.2,9.9,29,28.3,29c24.3,0,41.1-22,41.1-47.4C384.1,696.4,375.4,682.5,356.3,682.5z M345.9,742.7c-7,0-9.9-5.8-9.9-13.3     c0-11.6,6.4-31.2,17.4-31.2c7.5,0,9.9,6.4,9.9,12.1C363.2,723.1,356.9,742.7,345.9,742.7z M437.3,682.5c-8.1,0-16.2,4.6-22,12.1     h-0.6l1.1-11h-18.5c-1.1,7.5-2.4,19.1-4,27.2l-14.5,75.3h20.8l5.8-30.7h0.6c2.4,1.7,7,2.9,12.1,2.9c24.3,0,40.5-24.8,40.5-49.8     C458.7,694.6,452.4,682.5,437.3,682.5z M417.7,743.3c-4,0-6.4-1.1-8.7-2.9l3.5-19.1c2.4-12.7,9.2-21.5,16.2-21.5     c6.4,0,8.1,5.8,8.1,11.6C437.3,724.2,429.2,743.3,417.7,743.3z M488.2,653c-6.4,0-12.1,5.2-12.1,12.1c0,6.4,4,10.4,9.9,10.4h0.6     c6.4,0,12.1-4,12.1-12.1C498.7,657,494.6,653,488.2,653z M459.3,757.1h20.8l13.9-72.9h-20.7L459.3,757.1z M547.3,683.6h-14.5     l0.6-3.5c1.1-7,5.2-13.3,12.1-13.3c2.9,0,4.6,0.6,6.4,1.1l4.6-16.2c-2.4-1.1-6.4-1.7-11.6-1.7c-7.5,0-15.1,2.4-20.2,7     c-7,5.8-10.4,14.5-12.1,23.1l-0.6,3.5h-9.9l-2.9,15.6h9.9l-11,57.9h20.8l11-57.9h14.5L547.3,683.6z M597.1,684.2l-12.7,33     c-2.9,8.1-4.6,12.7-6.4,17.4h-0.6c-0.6-4.6-1.1-9.9-1.7-17.4l-3.5-33h-22l12.7,67.2c0.6,1.7,0,2.4-0.6,3.5     c-2.4,4.6-6.4,9.2-11.6,12.1c-4,2.9-8.1,4.6-11.6,5.8l5.8,17.4c4-1.1,12.7-4,20.2-11c9.2-8.7,18.5-22.6,27.2-41.1l25.5-53.8     C617.9,684.2,597.1,684.2,597.1,684.2z"/></g></g></g><g id="Layer_2"><g><path fill="#5F8D3E" d="M144.9,654c0,0-0.1-0.8-0.6-1.1s-0.9-0.3-0.9-0.3l-14.1-1l-10.4-10.3c-0.4-0.3-0.9-0.5-1.3-0.6l-7.7,154.7    l54.2-11.7L144.9,654z"/><path fill="#94BE46" d="M115,640.7l-5.3,1.6c-2.3-6.8-5.5-11.7-9.5-14.5c-3-2.1-6.2-3-9.8-2.7c-0.7-1-1.5-1.8-2.4-2.5    c-3.9-3.1-8.9-3.6-14.9-1.5c-17.9,6.5-25.6,29.6-28.4,41.3l-16,5c0,0-3.7,1-4.6,2.1c-0.9,1.1-1.1,4.2-1.1,4.2L9.8,776.5    l100.1,18.8l7.7-154.7C116.4,640.4,115.3,640.6,115,640.7z M97.3,632.5c3.1,2.2,5.4,6.6,6.9,11.5l-8.4,2.6c0-0.6,0-1.2,0-1.8    c-0.2-5.4-0.9-10-2.2-13.7C95,631.3,96.2,631.7,97.3,632.5z M72.5,653.9c2.3-9,6.7-18.1,15.1-21.6c1.7,4.5,2.3,10.7,2.2,16.2    L72.5,653.9z M75.3,626.8c3.6-1.3,6.4-1.3,8.6,0.1c-11.2,5.1-16.2,18-18.4,29.1l-13.8,4.3C54.8,649.1,61.7,631.7,75.3,626.8z"/><path fill="#FFFFFF" d="M79.4,726.6c-1.5-2.1-3.3-3.9-5.2-5.5c-1.9-1.6-3.8-3-5.7-4.2c-1.4-0.8-2.6-1.7-3.6-2.5    c-1-0.8-1.8-1.6-2.5-2.4c-0.6-0.8-1.1-1.6-1.4-2.4s-0.4-1.6-0.4-2.5c0.1-1.2,0.3-2.2,0.8-3.1c0.4-0.9,1.1-1.7,1.9-2.4    c0.8-0.7,1.8-1.2,2.9-1.6c1.1-0.4,2.4-0.7,3.8-0.7c1.5-0.1,3,0,4.4,0.1c1.4,0.1,2.8,0.4,4.1,0.7c1.3,0.3,2.5,0.7,3.5,1.1    c1.1,0.4,2,0.8,2.8,1.2l6.7-19.9c-1-0.5-2.2-1-3.6-1.4c-1.4-0.4-2.9-0.7-4.6-0.9c-1.7-0.2-3.5-0.3-5.5-0.3c-1.9,0-4,0.1-6.1,0.4    c-4.6,0.6-8.7,1.9-12.3,3.7c-3.5,1.7-6.5,4-9,6.7c-2.5,2.6-4.4,5.7-5.8,9.1c-1.4,3.4-2.2,7.1-2.4,11.2c-0.1,2.4,0.1,4.7,0.7,6.7    c0.5,2.1,1.3,4,2.4,5.8c1,1.8,2.3,3.4,3.8,4.9c1.5,1.5,3.1,2.9,4.9,4.2c1.4,1,2.6,2,3.6,3c1,0.9,1.8,1.9,2.4,2.8    c0.6,0.9,1,1.9,1.3,2.8c0.3,0.9,0.4,1.9,0.3,3c0,1-0.3,2-0.7,2.9c-0.4,0.9-1,1.6-1.7,2.2c-0.7,0.6-1.6,1-2.7,1.3    c-1,0.2-2.2,0.3-3.5,0.1c-1.5-0.2-3-0.7-4.5-1.2c-1.4-0.6-2.9-1.2-4.2-2c-1.3-0.7-2.5-1.5-3.6-2.3c-1.1-0.8-2-1.5-2.8-2.1    l-4.6,15.2c0.8,1,1.7,1.9,2.9,2.9c1.1,0.9,2.5,1.9,3.9,2.7c1.5,0.9,3.1,1.7,4.8,2.4c1.8,0.7,3.6,1.3,5.6,1.8c0,0,0.1,0,0.1,0    s0.1,0,0.1,0s0.1,0,0.1,0c0,0,0.1,0,0.1,0c4.1,0.9,8.2,1.1,11.9,0.6c3.9-0.5,7.4-1.8,10.5-3.9c3.1-2.1,5.7-5,7.6-8.8    c1.9-3.8,3.1-8.3,3.3-13.6c0.1-3.2-0.3-6.1-1.2-8.8C82.3,731.1,81,728.7,79.4,726.6z"/></g></g></svg>